<mxfile host="app.diagrams.net" modified="2021-01-07T12:22:32.899Z" agent="5.0 (Windows NT 6.3; Win64; x64) AppleWebKit/537.36 (KHTML, like Gecko) Chrome/87.0.4280.88 Safari/537.36" etag="9FZcPH7DgRzpvkyDAonB" version="14.0.1" type="github">
  <diagram id="kgpKYQtTHZ0yAKxKKP6v" name="Page-1">
    <mxGraphModel dx="1022" dy="436" grid="1" gridSize="10" guides="1" tooltips="1" connect="1" arrows="1" fold="1" page="1" pageScale="1" pageWidth="850" pageHeight="1100" math="0" shadow="0">
      <root>
        <mxCell id="0" />
        <mxCell id="1" parent="0" />
        <mxCell id="3nuBFxr9cyL0pnOWT2aG-1" value="InspectionControllerAPI:&#xa;&quot;//inspections/{numberPlate}/" style="shape=umlLifeline;perimeter=lifelinePerimeter;container=1;collapsible=0;recursiveResize=0;rounded=0;shadow=0;strokeWidth=1;" parent="1" vertex="1">
          <mxGeometry x="200" y="80" width="100" height="560" as="geometry" />
        </mxCell>
        <mxCell id="3nuBFxr9cyL0pnOWT2aG-2" value="" style="points=[];perimeter=orthogonalPerimeter;rounded=0;shadow=0;strokeWidth=1;" parent="3nuBFxr9cyL0pnOWT2aG-1" vertex="1">
          <mxGeometry x="45" y="70" width="10" height="330" as="geometry" />
        </mxCell>
        <mxCell id="3nuBFxr9cyL0pnOWT2aG-3" value="fill in info" style="verticalAlign=bottom;startArrow=oval;endArrow=block;startSize=8;shadow=0;strokeWidth=1;" parent="3nuBFxr9cyL0pnOWT2aG-1" target="3nuBFxr9cyL0pnOWT2aG-2" edge="1">
          <mxGeometry x="-0.2" y="10" relative="1" as="geometry">
            <mxPoint x="-80" y="70" as="sourcePoint" />
            <mxPoint as="offset" />
          </mxGeometry>
        </mxCell>
        <mxCell id="3nuBFxr9cyL0pnOWT2aG-5" value="InspectionService" style="shape=umlLifeline;perimeter=lifelinePerimeter;container=1;collapsible=0;recursiveResize=0;rounded=0;shadow=0;strokeWidth=1;" parent="1" vertex="1">
          <mxGeometry x="425" y="80" width="100" height="560" as="geometry" />
        </mxCell>
        <mxCell id="3nuBFxr9cyL0pnOWT2aG-6" value="" style="points=[];perimeter=orthogonalPerimeter;rounded=0;shadow=0;strokeWidth=1;" parent="3nuBFxr9cyL0pnOWT2aG-5" vertex="1">
          <mxGeometry x="45" y="80" width="10" height="270" as="geometry" />
        </mxCell>
        <mxCell id="3nuBFxr9cyL0pnOWT2aG-8" value="addNewInspectionToCar&#xa;(String numberPlate,&#xa;Â Inspection inspection)" style="verticalAlign=bottom;endArrow=block;entryX=0;entryY=0;shadow=0;strokeWidth=1;" parent="1" source="3nuBFxr9cyL0pnOWT2aG-2" target="3nuBFxr9cyL0pnOWT2aG-6" edge="1">
          <mxGeometry x="-0.0233" y="10" relative="1" as="geometry">
            <mxPoint x="275" y="160" as="sourcePoint" />
            <mxPoint as="offset" />
          </mxGeometry>
        </mxCell>
        <mxCell id="2JOJ4aaLV9Yn4x9uWiL0-1" value=":InspectionRepository" style="shape=umlLifeline;perimeter=lifelinePerimeter;container=1;collapsible=0;recursiveResize=0;rounded=0;shadow=0;strokeWidth=1;" vertex="1" parent="1">
          <mxGeometry x="660" y="80" width="100" height="560" as="geometry" />
        </mxCell>
        <mxCell id="2JOJ4aaLV9Yn4x9uWiL0-2" value="" style="points=[];perimeter=orthogonalPerimeter;rounded=0;shadow=0;strokeWidth=1;" vertex="1" parent="2JOJ4aaLV9Yn4x9uWiL0-1">
          <mxGeometry x="45" y="100" width="10" height="210" as="geometry" />
        </mxCell>
        <mxCell id="2JOJ4aaLV9Yn4x9uWiL0-5" value="Actor" style="shape=umlActor;verticalLabelPosition=bottom;verticalAlign=top;html=1;outlineConnect=0;" vertex="1" parent="1">
          <mxGeometry x="60" y="130" width="30" height="60" as="geometry" />
        </mxCell>
        <mxCell id="2JOJ4aaLV9Yn4x9uWiL0-6" value="submit" style="verticalAlign=bottom;startArrow=oval;endArrow=block;startSize=8;shadow=0;strokeWidth=1;" edge="1" parent="1">
          <mxGeometry relative="1" as="geometry">
            <mxPoint x="120" y="170" as="sourcePoint" />
            <mxPoint x="245" y="170" as="targetPoint" />
          </mxGeometry>
        </mxCell>
        <mxCell id="2JOJ4aaLV9Yn4x9uWiL0-7" value="check if car is present" style="verticalAlign=bottom;endArrow=block;entryX=0;entryY=0;shadow=0;strokeWidth=1;" edge="1" parent="1">
          <mxGeometry x="0.0233" relative="1" as="geometry">
            <mxPoint x="482" y="189" as="sourcePoint" />
            <mxPoint x="705" y="189.0000000000001" as="targetPoint" />
            <mxPoint as="offset" />
          </mxGeometry>
        </mxCell>
        <mxCell id="2JOJ4aaLV9Yn4x9uWiL0-8" value="return" style="verticalAlign=bottom;endArrow=open;dashed=1;endSize=8;shadow=0;strokeWidth=1;" edge="1" parent="1">
          <mxGeometry x="-0.0006" y="-30" relative="1" as="geometry">
            <mxPoint x="480" y="250.49999999999977" as="targetPoint" />
            <mxPoint x="700" y="250" as="sourcePoint" />
            <mxPoint as="offset" />
          </mxGeometry>
        </mxCell>
        <mxCell id="2JOJ4aaLV9Yn4x9uWiL0-13" value="Pool" style="swimlane;html=1;childLayout=stackLayout;resizeParent=1;resizeParentMax=0;horizontal=0;startSize=20;horizontalStack=0;" vertex="1" parent="1">
          <mxGeometry x="90" y="210" width="670" height="210" as="geometry" />
        </mxCell>
        <mxCell id="2JOJ4aaLV9Yn4x9uWiL0-14" value="Lane 1" style="swimlane;html=1;startSize=20;horizontal=0;" vertex="1" parent="2JOJ4aaLV9Yn4x9uWiL0-13">
          <mxGeometry x="20" width="650" height="90" as="geometry" />
        </mxCell>
        <mxCell id="2JOJ4aaLV9Yn4x9uWiL0-9" value="car is present,&amp;nbsp;&lt;br&gt;inspection.setCar(carFromDb.get());&lt;br&gt;inspectionRepository.save(inspection)" style="text;html=1;align=center;verticalAlign=middle;resizable=0;points=[];autosize=1;" vertex="1" parent="2JOJ4aaLV9Yn4x9uWiL0-14">
          <mxGeometry x="380" y="20" width="220" height="50" as="geometry" />
        </mxCell>
        <mxCell id="2JOJ4aaLV9Yn4x9uWiL0-15" value="Lane 2" style="swimlane;html=1;startSize=20;horizontal=0;" vertex="1" parent="2JOJ4aaLV9Yn4x9uWiL0-13">
          <mxGeometry x="20" y="90" width="650" height="120" as="geometry" />
        </mxCell>
        <mxCell id="2JOJ4aaLV9Yn4x9uWiL0-21" value="return" style="verticalAlign=bottom;endArrow=open;dashed=1;endSize=8;shadow=0;strokeWidth=1;" edge="1" parent="2JOJ4aaLV9Yn4x9uWiL0-15">
          <mxGeometry x="-0.0006" y="-30" relative="1" as="geometry">
            <mxPoint x="375" y="60.49999999999977" as="targetPoint" />
            <mxPoint x="595" y="60" as="sourcePoint" />
            <mxPoint as="offset" />
          </mxGeometry>
        </mxCell>
        <mxCell id="2JOJ4aaLV9Yn4x9uWiL0-22" value="car is NOT present" style="text;html=1;align=center;verticalAlign=middle;resizable=0;points=[];autosize=1;" vertex="1" parent="2JOJ4aaLV9Yn4x9uWiL0-15">
          <mxGeometry x="420" y="40" width="120" height="20" as="geometry" />
        </mxCell>
        <mxCell id="2JOJ4aaLV9Yn4x9uWiL0-27" value="" style="endArrow=classic;html=1;exitX=0.982;exitY=1.028;exitDx=0;exitDy=0;exitPerimeter=0;" edge="1" parent="2JOJ4aaLV9Yn4x9uWiL0-15">
          <mxGeometry width="50" height="50" relative="1" as="geometry">
            <mxPoint x="591.04" y="90" as="sourcePoint" />
            <mxPoint x="140" y="90" as="targetPoint" />
          </mxGeometry>
        </mxCell>
        <mxCell id="2JOJ4aaLV9Yn4x9uWiL0-28" value="return ResponseEntity.badRequest()" style="text;html=1;align=center;verticalAlign=middle;resizable=0;points=[];autosize=1;" vertex="1" parent="2JOJ4aaLV9Yn4x9uWiL0-15">
          <mxGeometry x="150" y="70" width="210" height="20" as="geometry" />
        </mxCell>
        <mxCell id="2JOJ4aaLV9Yn4x9uWiL0-24" value="return ResponseEntity.ok()" style="text;html=1;align=center;verticalAlign=middle;resizable=0;points=[];autosize=1;" vertex="1" parent="1">
          <mxGeometry x="280" y="260" width="160" height="20" as="geometry" />
        </mxCell>
        <mxCell id="2JOJ4aaLV9Yn4x9uWiL0-23" value="" style="endArrow=classic;html=1;exitX=0.982;exitY=1.028;exitDx=0;exitDy=0;exitPerimeter=0;" edge="1" parent="1" source="2JOJ4aaLV9Yn4x9uWiL0-9" target="3nuBFxr9cyL0pnOWT2aG-2">
          <mxGeometry width="50" height="50" relative="1" as="geometry">
            <mxPoint x="470" y="280" as="sourcePoint" />
            <mxPoint x="260" y="280" as="targetPoint" />
          </mxGeometry>
        </mxCell>
      </root>
    </mxGraphModel>
  </diagram>
</mxfile>
